<?xml version="1.0" encoding="utf-8"?>
<!-- Generator: Adobe Illustrator 24.1.2, SVG Export Plug-In . SVG Version: 6.00 Build 0)  -->
<svg version="1.1" id="Layer_1" xmlns="http://www.w3.org/2000/svg" xmlns:xlink="http://www.w3.org/1999/xlink" x="0px" y="0px"
	 viewBox="0 0 380.2 106.7" style="enable-background:new 0 0 380.2 106.7;" xml:space="preserve">
<style type="text/css">
	.st0{clip-path:url(#SVGID_2_);fill:#3EBB64;}
	.st1{clip-path:url(#SVGID_4_);fill:#3EBB64;}
	.st2{clip-path:url(#SVGID_6_);fill:#3EBB64;}
	.st3{clip-path:url(#SVGID_8_);fill:#3EBB64;}
	.st4{clip-path:url(#SVGID_10_);fill:#3EBB64;}
	.st5{clip-path:url(#SVGID_12_);fill:#3EBB64;}
	.st6{clip-path:url(#SVGID_14_);fill:#3EBB64;}
	.st7{clip-path:url(#SVGID_16_);fill:#3EBB64;}
	.st8{clip-path:url(#SVGID_18_);fill:#3EBB64;}
	.st9{clip-path:url(#SVGID_20_);fill:#3EBB64;}
	.st10{clip-path:url(#SVGID_22_);fill:#3EBB64;}
	.st11{clip-path:url(#SVGID_24_);fill:#3EBB64;}
	.st12{clip-path:url(#SVGID_26_);fill:#3EBB64;}
	.st13{clip-path:url(#SVGID_28_);fill:#3EBB64;}
	.st14{clip-path:url(#SVGID_30_);fill:#3EBB64;}
	.st15{clip-path:url(#SVGID_32_);fill:#3EBB64;}
	.st16{clip-path:url(#SVGID_34_);fill:#3EBB64;}
</style>
<g>
	<g>
		<defs>
			<rect id="SVGID_1_" x="-66.4" y="-202.3" width="512" height="512"/>
		</defs>
		<clipPath id="SVGID_2_">
			<use xlink:href="#SVGID_1_"  style="overflow:visible;"/>
		</clipPath>
		<path class="st0" d="M366.3,40.7h-4.2c-0.8,0-1.5,0.7-1.5,1.5v25.5c0,8.2,6.7,14.9,14.9,14.9h2.8c0.8,0,1.5-0.7,1.5-1.5v-4.2
			c0-0.8-0.7-1.5-1.5-1.5h-2.7c-4.3,0-7.7-3.5-7.7-7.7V42.2C367.8,41.4,367.2,40.7,366.3,40.7"/>
	</g>
	<g>
		<defs>
			<rect id="SVGID_3_" x="-66.4" y="-202.3" width="512" height="512"/>
		</defs>
		<clipPath id="SVGID_4_">
			<use xlink:href="#SVGID_3_"  style="overflow:visible;"/>
		</clipPath>
		<path class="st1" d="M375,51.4h-10.2v7.1H375c0.8,0,1.5-0.7,1.5-1.5v-4.2C376.5,52.1,375.8,51.4,375,51.4"/>
	</g>
	<g>
		<defs>
			<rect id="SVGID_5_" x="-66.4" y="-202.3" width="512" height="512"/>
		</defs>
		<clipPath id="SVGID_6_">
			<use xlink:href="#SVGID_5_"  style="overflow:visible;"/>
		</clipPath>
		<path class="st2" d="M239.9,82.5h-4.2c-0.8,0-1.5-0.7-1.5-1.5V52.8c0-0.8,0.7-1.5,1.5-1.5h4.2c0.8,0,1.5,0.7,1.5,1.5V81
			C241.3,81.9,240.7,82.5,239.9,82.5"/>
	</g>
	<g>
		<defs>
			<rect id="SVGID_7_" x="-66.4" y="-202.3" width="512" height="512"/>
		</defs>
		<clipPath id="SVGID_8_">
			<use xlink:href="#SVGID_7_"  style="overflow:visible;"/>
		</clipPath>
		<path class="st3" d="M264.6,82.5h-4.2c-0.8,0-1.5-0.7-1.5-1.5V42.2c0-0.8,0.7-1.5,1.5-1.5h4.2c0.8,0,1.5,0.7,1.5,1.5V81
			C266,81.9,265.4,82.5,264.6,82.5"/>
	</g>
	<g>
		<defs>
			<rect id="SVGID_9_" x="-66.4" y="-202.3" width="512" height="512"/>
		</defs>
		<clipPath id="SVGID_10_">
			<use xlink:href="#SVGID_9_"  style="overflow:visible;"/>
		</clipPath>
		<path class="st4" d="M355.7,82.5h-4.1c-0.8,0-1.5-0.7-1.5-1.5V52.8c0-0.8,0.7-1.5,1.5-1.5h4.2c0.8,0,1.5,0.7,1.5,1.5V81
			C357.2,81.9,356.5,82.5,355.7,82.5"/>
	</g>
	<g>
		<defs>
			<rect id="SVGID_11_" x="-66.4" y="-202.3" width="512" height="512"/>
		</defs>
		<clipPath id="SVGID_12_">
			<use xlink:href="#SVGID_11_"  style="overflow:visible;"/>
		</clipPath>
		<path class="st5" d="M355.7,47.8h-4.1c-0.8,0-1.5-0.7-1.5-1.5v-4.2c0-0.8,0.7-1.5,1.5-1.5h4.2c0.8,0,1.5,0.7,1.5,1.5v4.2
			C357.2,47.2,356.5,47.8,355.7,47.8"/>
	</g>
	<g>
		<defs>
			<rect id="SVGID_13_" x="-66.4" y="-202.3" width="512" height="512"/>
		</defs>
		<clipPath id="SVGID_14_">
			<use xlink:href="#SVGID_13_"  style="overflow:visible;"/>
		</clipPath>
		<path class="st6" d="M215.3,82.5c-8.6,0-15.6-7-15.6-15.6s7-15.6,15.6-15.6s15.6,7,15.6,15.6C230.9,75.5,223.9,82.5,215.3,82.5
			 M215.3,58.5c-4.7,0-8.5,3.8-8.5,8.5s3.8,8.5,8.5,8.5s8.5-3.8,8.5-8.5C223.8,62.3,220,58.5,215.3,58.5"/>
	</g>
	<g>
		<defs>
			<rect id="SVGID_15_" x="-66.4" y="-202.3" width="512" height="512"/>
		</defs>
		<clipPath id="SVGID_16_">
			<use xlink:href="#SVGID_15_"  style="overflow:visible;"/>
		</clipPath>
		<path class="st7" d="M318.4,51.4h4.2c0.8,0,1.5,0.7,1.5,1.5v14.5c0,3.9,2.8,7.4,6.7,7.9c4.7,0.6,8.8-3.1,8.8-7.7V52.8
			c0-0.8,0.7-1.5,1.5-1.5h4.2c0.8,0,1.5,0.7,1.5,1.5v14.4c0,8-6.1,14.9-14.1,15.3c-8.5,0.4-15.6-6.4-15.6-14.8V52.9
			C316.9,52.1,317.5,51.4,318.4,51.4"/>
	</g>
	<g>
		<defs>
			<rect id="SVGID_17_" x="-66.4" y="-202.3" width="512" height="512"/>
		</defs>
		<clipPath id="SVGID_18_">
			<use xlink:href="#SVGID_17_"  style="overflow:visible;"/>
		</clipPath>
		<path class="st8" d="M287.4,80.2l-14.3-20.3c-2,1.4-4,2.6-6.1,3.7l12.9,18.3c0.3,0.4,0.7,0.6,1.2,0.6h5.1
			C287.4,82.5,288.1,81.2,287.4,80.2"/>
	</g>
	<g>
		<defs>
			<rect id="SVGID_19_" x="-66.4" y="-202.3" width="512" height="512"/>
		</defs>
		<clipPath id="SVGID_20_">
			<use xlink:href="#SVGID_19_"  style="overflow:visible;"/>
		</clipPath>
		<path class="st9" d="M276,51.9l-12.4,14.9c0.7,1.2,1.4,2.3,2.1,3.6c0.4,1.2-0.8,4.3-0.4,5.5l18.4-22c0.8-1,0.1-2.4-1.1-2.4h-5.4
			C276.7,51.4,276.3,51.6,276,51.9"/>
	</g>
	<g>
		<defs>
			<rect id="SVGID_21_" x="-66.4" y="-202.3" width="512" height="512"/>
		</defs>
		<clipPath id="SVGID_22_">
			<use xlink:href="#SVGID_21_"  style="overflow:visible;"/>
		</clipPath>
		<path class="st10" d="M189.3,52.9v16.7c0,2.9-2.1,5.6-5.1,5.9c-3.4,0.3-6.2-2.3-6.2-5.6V53c0-0.8-0.7-1.5-1.5-1.5h-4.2
			c-0.8,0-1.5,0.7-1.5,1.5v16.9c0,7,5.7,12.8,12.8,12.8c7,0,12.8-5.7,12.8-12.8V53c0-0.8-0.7-1.5-1.5-1.5h-4.2
			C190,51.4,189.3,52.1,189.3,52.9"/>
	</g>
	<g>
		<defs>
			<rect id="SVGID_23_" x="-66.4" y="-202.3" width="512" height="512"/>
		</defs>
		<clipPath id="SVGID_24_">
			<use xlink:href="#SVGID_23_"  style="overflow:visible;"/>
		</clipPath>
		<path class="st11" d="M170.9,52.9v16.7c0,2.9-2.1,5.6-5.1,5.9c-3.4,0.3-6.2-2.3-6.2-5.6V53c0-0.8-0.7-1.5-1.5-1.5h-4.2
			c-0.8,0-1.5,0.7-1.5,1.5v16.9c0,7,5.7,12.8,12.8,12.8c7,0,12.8-5.7,12.8-12.8V53c0-0.8-0.7-1.5-1.5-1.5h-4.2
			C171.6,51.4,170.9,52.1,170.9,52.9"/>
	</g>
	<g>
		<defs>
			<rect id="SVGID_25_" x="-66.4" y="-202.3" width="512" height="512"/>
		</defs>
		<clipPath id="SVGID_26_">
			<use xlink:href="#SVGID_25_"  style="overflow:visible;"/>
		</clipPath>
		<path class="st12" d="M252.8,58.1l2-3.7c0.4-0.8,0.1-1.8-0.8-2.1c-2.6-0.9-5.6-1.1-8.5-0.5c-6.8,1.6-11.4,7.9-11.4,14.9v14.4
			c0,0.8,0.7,1.5,1.5,1.5h4.2c0.8,0,1.5-0.7,1.5-1.5V66.6c0-3.7,2.4-7,6-7.9c1.3-0.3,2.6-0.3,3.8,0.1
			C251.7,59,252.4,58.7,252.8,58.1"/>
	</g>
	<g>
		<defs>
			<rect id="SVGID_27_" x="-66.4" y="-202.3" width="512" height="512"/>
		</defs>
		<clipPath id="SVGID_28_">
			<use xlink:href="#SVGID_27_"  style="overflow:visible;"/>
		</clipPath>
		<path class="st13" d="M297.6,82.5h-4.2c-0.8,0-1.5-0.7-1.5-1.5V52.8c0-0.8,0.7-1.5,1.5-1.5h4.2c0.8,0,1.5,0.7,1.5,1.5V81
			C299.1,81.9,298.4,82.5,297.6,82.5"/>
	</g>
	<g>
		<defs>
			<rect id="SVGID_29_" x="-66.4" y="-202.3" width="512" height="512"/>
		</defs>
		<clipPath id="SVGID_30_">
			<use xlink:href="#SVGID_29_"  style="overflow:visible;"/>
		</clipPath>
		<path class="st14" d="M310.6,58.1l2-3.7c0.4-0.8,0.1-1.8-0.8-2.1c-2.6-0.9-5.6-1.1-8.5-0.5c-6.8,1.6-11.4,7.9-11.4,14.9v14.4
			c0,0.8,0.7,1.5,1.5,1.5h4.2c0.8,0,1.5-0.7,1.5-1.5V66.6c0-3.7,2.4-7,6-7.9c1.3-0.3,2.6-0.3,3.8,0.1
			C309.5,59,310.2,58.7,310.6,58.1"/>
	</g>
	<g>
		<defs>
			<rect id="SVGID_31_" x="-66.4" y="-202.3" width="512" height="512"/>
		</defs>
		<clipPath id="SVGID_32_">
			<use xlink:href="#SVGID_31_"  style="overflow:visible;"/>
		</clipPath>
		<path class="st15" d="M97.4,0.4H34.2c-1.3,0-2.4,1.1-2.4,2.4V20c0,1.3,1.1,2.4,2.4,2.4h2.4c1.3,0,2.4-1.1,2.4-2.4V7.5h53.7V20
			c0,1.3,1.1,2.4,2.4,2.4h2.4c1.3,0,2.4-1.1,2.4-2.4V2.8C99.8,1.5,98.7,0.4,97.4,0.4"/>
	</g>
	<g>
		<defs>
			<rect id="SVGID_33_" x="-66.4" y="-202.3" width="512" height="512"/>
		</defs>
		<clipPath id="SVGID_34_">
			<use xlink:href="#SVGID_33_"  style="overflow:visible;"/>
		</clipPath>
		<path class="st16" d="M128.3,27.6h-16.9c-1,0-2,0.6-2.4,1.5l-26.1,55L59.5,34.7h11.9L69,39.8c-0.4,0.8-0.4,1.8,0,2.7l1.5,3.1
			c0.3,0.7,1,1.2,1.8,1.2s1.5-0.4,1.8-1.2L81,31c0.3-0.7,0.3-1.6-0.1-2.3c-0.4-0.7-1.2-1.1-2-1.1h-27c-0.8,0-1.6,0.4-2,1.1
			c-0.4,0.7-0.5,1.5-0.1,2.3l11.7,24.6L47.9,84.2l-26.1-55c-0.4-0.9-1.4-1.5-2.4-1.5H3.2c-1.3,0-2.4,1.1-2.4,2.4V104
			c0,1.3,1.1,2.4,2.4,2.4h125.1c1.3,0,2.4-1.1,2.4-2.4V30.1C130.7,28.7,129.6,27.6,128.3,27.6 M47.9,94c2,0,3.8-1.1,4.6-2.9
			l12.9-27.2l12.9,27.2c0.8,1.8,2.6,2.9,4.6,2.9s3.8-1.1,4.6-2.9l26.7-56.3h9.3v64.4H8V34.7h8.6L43.3,91C44.2,92.8,46,94,47.9,94"/>
	</g>
</g>
</svg>
